<svg id="レイヤー_1" data-name="レイヤー 1" xmlns="http://www.w3.org/2000/svg" viewBox="0 0 841.89 296.09"><defs><style>.cls-1{fill:#fff;}</style></defs><path class="cls-1" d="M23.41,250.06a15.7,15.7,0,0,1,10.73,4.54,15.1,15.1,0,0,1,4.66,10.61v27.52q-.24,17.73-8.63,37.08-6.76,12.12-20.29,7.69a17.35,17.35,0,0,1-8.51-8.63,13.55,13.55,0,0,1-.11-11.65q6.06-13.53,6.06-23.56V265.21a14.89,14.89,0,0,1,4.89-10.84A15.94,15.94,0,0,1,23.41,250.06ZM1,221.37A15.07,15.07,0,0,1,5.57,210.3a15.08,15.08,0,0,1,11.08-4.55H61.42a15.31,15.31,0,0,1,4.89-10.26,16.15,16.15,0,0,1,11.2-4.2,16,16,0,0,1,10.72,4.43,15.6,15.6,0,0,1,4.67,10H105A25.78,25.78,0,0,1,101.29,192a24.94,24.94,0,0,1,7.58-18.3,26.18,26.18,0,0,1,36.85,0,24.93,24.93,0,0,1,7.57,18.3,25.69,25.69,0,0,1-6.06,17,9.55,9.55,0,0,1,1.4,1.16,15.69,15.69,0,0,1,4.43,11.19A15.54,15.54,0,0,1,137.44,237H92.9v86.51q-1.4,14-15.39,15.16a16.29,16.29,0,0,1-11.31-4.32,14,14,0,0,1-4.78-10.84V237H16.65a14.46,14.46,0,0,1-11-4.67A14.46,14.46,0,0,1,1,221.37ZM113.89,192a13.54,13.54,0,0,0,13.52,13.53,12.77,12.77,0,0,0,9.33-4,13,13,0,0,0,4-9.56,13.55,13.55,0,0,0-13.29-13.29,13,13,0,0,0-9.56,4A12.72,12.72,0,0,0,113.89,192Zm18.18,58.07a16,16,0,0,1,11.2,4.31,14.89,14.89,0,0,1,4.89,10.84v28.45q0,10,6.07,23.56a13.58,13.58,0,0,1-.12,11.65,17.35,17.35,0,0,1-8.51,8.63q-13.53,4.42-20.29-7.69-8.39-19.35-8.63-37.08V265.21a15.07,15.07,0,0,1,4.67-10.61A15.68,15.68,0,0,1,132.07,250.06Z" transform="translate(0 -149.59)"/><path class="cls-1" d="M212.6,380.09a8.08,8.08,0,0,1,8.14-8.13H285.8a7.88,7.88,0,0,1,8.13,8.13,8.09,8.09,0,0,1-8.13,8.13h-18l-1.58,10.93h20a7.88,7.88,0,0,1,8.14,8.13,8.08,8.08,0,0,1-8.14,8.13H263.83l-.61,3.89a29.44,29.44,0,0,1-8.74,17.23q-7.29,7.17-16.27,7H221.46a8.08,8.08,0,0,1-7.89-7.89,8.27,8.27,0,0,1,2.25-5.82,7.76,7.76,0,0,1,5.64-2.55H236a10.2,10.2,0,0,0,7.46-2.92q3-2.91,3.95-9H221.22a8.3,8.3,0,0,1-8.13-8.13,8.06,8.06,0,0,1,8.13-8.13h28.65l1.58-10.93H220.74a8.3,8.3,0,0,1-8.14-8.13Z" transform="translate(0 -149.59)"/><path class="cls-1" d="M307.65,395.87a6.31,6.31,0,0,1,1.88-4.67,6.18,6.18,0,0,1,4.55-1.89h7.16a6.22,6.22,0,0,1,2.07-4,6.62,6.62,0,0,1,4.73-1.82,6.89,6.89,0,0,1,4.49,1.94,5.83,5.83,0,0,1,1.82,3.88h21.73a4.52,4.52,0,0,1,1.09.13h.61A18.78,18.78,0,0,1,369,393.08a20.33,20.33,0,0,1,6.31,7.77,21.67,21.67,0,0,1,1.94,8.86,22.85,22.85,0,0,1-1.88,9.1,19.76,19.76,0,0,1-6.31,7.77,17.91,17.91,0,0,1-11.23,3.4h-9.11a6.56,6.56,0,0,1,0-13.11h9.72a4.12,4.12,0,0,0,3-1.22,7.84,7.84,0,0,0,1.82-2.79,9.13,9.13,0,0,0,.61-3.28,9,9,0,0,0-.61-3.09,7.9,7.9,0,0,0-1.82-2.85,4.57,4.57,0,0,0-3-1.34h-24v36.3q-.48,5.82-6.31,6.31a6.92,6.92,0,0,1-4.8-1.82,5.85,5.85,0,0,1-2-4.49V402.3h-7.16a6.63,6.63,0,0,1-6.43-6.43Z" transform="translate(0 -149.59)"/><path class="cls-1" d="M391.52,380.09a8.08,8.08,0,0,1,8.14-8.13H431a7.88,7.88,0,0,1,8.14,8.13,8.09,8.09,0,0,1-8.14,8.13H399.66a8.3,8.3,0,0,1-8.14-8.13Zm81.09.61-11.17,34.47Q456.58,429,449.3,436.05t-15.9,7.52H410.58a8.08,8.08,0,0,1-7.89-7.89,8.27,8.27,0,0,1,2.25-5.82,7.73,7.73,0,0,1,5.64-2.55h18.69a14.9,14.9,0,0,0,8.68-3.52,22.22,22.22,0,0,0,6.13-7.47,56.1,56.1,0,0,0,3.52-9.16l10-31.8a10.43,10.43,0,0,1,2.48-4.19,6.9,6.9,0,0,1,5-1.64,7.62,7.62,0,0,1,5.65,2.43,8.07,8.07,0,0,1,2.36,5.82A8.56,8.56,0,0,1,472.61,380.7Z" transform="translate(0 -149.59)"/><path class="cls-1" d="M486.2,380.09a8.08,8.08,0,0,1,8.14-8.13h60.93a7.87,7.87,0,0,1,8.13,8.13,8.3,8.3,0,0,1-1,4l-16.75,27.56,21.12,20q4.74,5.46.12,11.16a8.9,8.9,0,0,1-5.64,2.8,6.77,6.77,0,0,1-5.77-2.07l-19.3-18.21a60.24,60.24,0,0,1-10.68,10.69q-9.35,7-18.08,7.52H494.82a8.08,8.08,0,0,1-7.89-7.89,8.27,8.27,0,0,1,2.25-5.82,7.74,7.74,0,0,1,5.64-2.55h11.41a19.44,19.44,0,0,0,9.59-3.52,34.56,34.56,0,0,0,8.26-7.47,83.66,83.66,0,0,0,6.19-9.16l11.28-18.94H494.34a8.3,8.3,0,0,1-8.14-8.13Z" transform="translate(0 -149.59)"/><path class="cls-1" d="M608.92,437a7.33,7.33,0,0,1-2.91,5.82,11.41,11.41,0,0,1-14.08,0A7.33,7.33,0,0,1,589,437a7.47,7.47,0,0,1,2.91-5.95,11.41,11.41,0,0,1,14.08,0A7.47,7.47,0,0,1,608.92,437Zm-10.19-15.78a8.16,8.16,0,0,1-5.59-2.37,7.83,7.83,0,0,1-2.43-5.52v-42c.49-4.86,3.16-7.48,8-7.89a8.52,8.52,0,0,1,5.88,2.24,7.29,7.29,0,0,1,2.49,5.65v42a7.74,7.74,0,0,1-2.55,5.64A8.27,8.27,0,0,1,598.73,421.24Z" transform="translate(0 -149.59)"/><path class="cls-1" d="M492.39,248.68a10.45,10.45,0,0,1,10.52-10.52h65.9a11.93,11.93,0,0,1,1.88.16h.94q11,.31,18,5.88a33.69,33.69,0,0,1,10.2,12.64A34.83,34.83,0,0,1,603,271.11a36.39,36.39,0,0,1-3.06,14.6,32.6,32.6,0,0,1-10.19,12.63q-7.15,5.57-18.13,5.41h-8.78a10.73,10.73,0,0,1-10.52-10.51,10.45,10.45,0,0,1,10.52-10.52h9.72a6.71,6.71,0,0,0,4.95-2,12.34,12.34,0,0,0,2.9-4.55,15.15,15.15,0,0,0,.94-5.25,14.75,14.75,0,0,0-.94-5.1,12.42,12.42,0,0,0-2.9-4.55,7.26,7.26,0,0,0-4.95-2.12H502.91a10.73,10.73,0,0,1-10.52-10.51ZM539.47,267a9.18,9.18,0,0,1,9.1,10.2l-.94,8.32a82.69,82.69,0,0,1-5.81,21,47.68,47.68,0,0,1-12.63,16.71,31.56,31.56,0,0,1-19.07,7.45h-6.9a10.46,10.46,0,0,1-10.2-10.2,10.71,10.71,0,0,1,2.9-7.53,10.09,10.09,0,0,1,7.3-3.3h4.39a15.91,15.91,0,0,0,10.44-4.55,22.75,22.75,0,0,0,6.2-9.65,65.39,65.39,0,0,0,2.51-11.84l.62-6.44a12.07,12.07,0,0,1,4.24-7.29A11.85,11.85,0,0,1,539.47,267Z" transform="translate(0 -149.59)"/><path class="cls-1" d="M632.51,256.84a7.9,7.9,0,0,1,5.81,2.35,8.47,8.47,0,0,1,2.51,5.8v25.58q-.8,7.53-8.32,8.16a8.74,8.74,0,0,1-6-2.35,7.57,7.57,0,0,1-2.59-5.81V265a8.12,8.12,0,0,1,2.67-5.88A8.55,8.55,0,0,1,632.51,256.84Zm72.65,11L694.49,301.4q-5,14.43-12.55,21.65t-16.32,7.85h-10a8.54,8.54,0,0,1-5.81-2.51,7.71,7.71,0,0,1-2.35-5.65,8.8,8.8,0,0,1,2.27-6.12,8.13,8.13,0,0,1,5.89-2.67h5.65a14.79,14.79,0,0,0,9-3.53,23.49,23.49,0,0,0,6.35-7.77,52.58,52.58,0,0,0,3.61-9.41l9.26-30.91a11.65,11.65,0,0,1,2.67-4.4,7,7,0,0,1,5.18-1.72,7.9,7.9,0,0,1,5.88,2.51,8.46,8.46,0,0,1,2.43,6.12A9.21,9.21,0,0,1,705.16,267.82Zm-47.54-11a7.87,7.87,0,0,1,5.8,2.35,8.43,8.43,0,0,1,2.51,5.8v25.58q-.78,7.53-8.31,8.16a8.73,8.73,0,0,1-6-2.35,7.54,7.54,0,0,1-2.59-5.81V265a8,8,0,0,1,2.67-5.88A8.55,8.55,0,0,1,657.62,256.84Z" transform="translate(0 -149.59)"/><path class="cls-1" d="M269.36,258.79l-2.9,7.53q-6.37,16.53-15.07,24.92a32.06,32.06,0,0,1-14.49,8.41v26.8q-.87,8.7-9.56,9.42a10.14,10.14,0,0,1-7-2.68,8.69,8.69,0,0,1-3-6.74V300.23h-33.9a9.67,9.67,0,0,1-9.42-9.42,9.86,9.86,0,0,1,2.68-6.95,9.26,9.26,0,0,1,6.74-3.05h44a17.73,17.73,0,0,0,10.36-4.2,26.47,26.47,0,0,0,7.32-8.91,101.67,101.67,0,0,0,4.49-10.65l1.74-4.64a12.63,12.63,0,0,1,3-5q2-2,6-2a9.09,9.09,0,0,1,6.74,2.9,9.58,9.58,0,0,1,2.83,6.95A10.24,10.24,0,0,1,269.36,258.79Z" transform="translate(0 -149.59)"/><path class="cls-1" d="M286.16,258.07a9.65,9.65,0,0,1,9.71-9.71h37.38a9.41,9.41,0,0,1,9.71,9.71,9.63,9.63,0,0,1-9.71,9.7H295.87a9.89,9.89,0,0,1-9.71-9.7Zm96.79.72-13.33,41.15q-5.79,16.51-14.49,24.92t-19,9H308.91a9.65,9.65,0,0,1-9.42-9.42,9.91,9.91,0,0,1,2.68-6.95,9.27,9.27,0,0,1,6.74-3h22.31a17.86,17.86,0,0,0,10.36-4.2,26.41,26.41,0,0,0,7.32-8.92,67.88,67.88,0,0,0,4.2-10.93l11.88-38a12.63,12.63,0,0,1,3-5c1.31-1.31,3.31-2,6-2a9.09,9.09,0,0,1,6.73,2.9,9.58,9.58,0,0,1,2.83,6.95A10.24,10.24,0,0,1,383,258.79Z" transform="translate(0 -149.59)"/><path class="cls-1" d="M411.64,246a9.75,9.75,0,0,1,6.66,2.83,9.33,9.33,0,0,1,2.9,6.59v25.35h58.1a9.44,9.44,0,0,1,9.71,9.71,9.66,9.66,0,0,1-9.71,9.71H421.2v26.22q-.87,8.7-9.56,9.42a10.12,10.12,0,0,1-7-2.68,8.69,8.69,0,0,1-3-6.74v-71a9.25,9.25,0,0,1,3-6.74A9.87,9.87,0,0,1,411.64,246Z" transform="translate(0 -149.59)"/><path class="cls-1" d="M683.1,206.31A16,16,0,0,1,687.37,195a13.59,13.59,0,0,1,10.4-4.63h99a28.31,28.31,0,0,1-3.72-14.48,26.5,26.5,0,0,1,7.12-18.63,23.26,23.26,0,0,1,34.6,0,28.25,28.25,0,0,1,.11,37.38,33.44,33.44,0,0,1-4.38,4,15,15,0,0,1,1.53,7.6l-7,55.77a133,133,0,0,1-8.11,31.79,71.84,71.84,0,0,1-17.63,25.28,42.16,42.16,0,0,1-26.61,11.27H731.5a13.82,13.82,0,0,1-10-4.63A16.14,16.14,0,0,1,717.26,315a17,17,0,0,1,4.06-11.4,13.57,13.57,0,0,1,10.18-5h37.67a21.51,21.51,0,0,0,14.57-6.88,34.8,34.8,0,0,0,8.65-14.6,104.49,104.49,0,0,0,3.5-17.91l4-31.09c.43-3.8-.81-5.77-3.73-5.93H697.77a13.12,13.12,0,0,1-10.29-4.75A15.32,15.32,0,0,1,683.1,206.31Zm121.77-30.38a13.8,13.8,0,0,0,3.73,9.73,11.78,11.78,0,0,0,9,4,11.57,11.57,0,0,0,8.76-4,13.84,13.84,0,0,0,3.72-9.73,13.56,13.56,0,0,0-3.72-9.49,11.56,11.56,0,0,0-8.76-4,11.77,11.77,0,0,0-9,4A13.52,13.52,0,0,0,804.87,175.93Z" transform="translate(0 -149.59)"/><path class="cls-1" d="M122.6,198.23a1.69,1.69,0,0,1-1.7,1.68,1.77,1.77,0,0,1-1.24-.48,1.53,1.53,0,0,1-.53-1.2V186.09a1.61,1.61,0,0,1,.54-1.2,1.73,1.73,0,0,1,1.23-.48h10.81a5.8,5.8,0,0,1,3.43,1,5.49,5.49,0,0,1,1.67,2.07,5.81,5.81,0,0,1,0,4.74,5.31,5.31,0,0,1-1.67,2.07,4.55,4.55,0,0,1-3,.89h-6.49a1.74,1.74,0,0,1-1.72-1.72,1.71,1.71,0,0,1,1.72-1.73h6.64a1.1,1.1,0,0,0,.81-.32,2,2,0,0,0,.48-.75,2.55,2.55,0,0,0,.15-.86,2.47,2.47,0,0,0-.15-.83,2,2,0,0,0-.48-.75,1.17,1.17,0,0,0-.81-.35h-9.06a.61.61,0,0,0-.67.67Z" transform="translate(0 -149.59)"/><path class="cls-1" d="M813.1,183a1.67,1.67,0,0,1-1.69,1.67,1.8,1.8,0,0,1-1.25-.48,1.53,1.53,0,0,1-.53-1.19V170.85a1.68,1.68,0,0,1,.54-1.2,1.75,1.75,0,0,1,1.24-.47h10.81a5.75,5.75,0,0,1,3.42,1,5.49,5.49,0,0,1,1.67,2.07,5.76,5.76,0,0,1,.52,2.34,5.87,5.87,0,0,1-.51,2.39,5.26,5.26,0,0,1-1.67,2.08,4.55,4.55,0,0,1-3,.88h-6.49a1.74,1.74,0,0,1-1.72-1.72A1.67,1.67,0,0,1,815,177a1.64,1.64,0,0,1,1.22-.5h6.64a1.07,1.07,0,0,0,.81-.33,1.89,1.89,0,0,0,.48-.74,2.61,2.61,0,0,0,.15-.87,2.47,2.47,0,0,0-.15-.83,2,2,0,0,0-.48-.75,1.21,1.21,0,0,0-.81-.35h-9.06a.62.62,0,0,0-.67.67Z" transform="translate(0 -149.59)"/></svg>